<svg width="224" height="303" viewBox="0 0 224 303" fill="none" xmlns="http://www.w3.org/2000/svg">
<path d="M2 109H66.8V280.2L94.8 288.2V303H7.15256e-07V288.2L29.2 279.4V128.2L2 123.4V109ZM15.2 23.8C15.2 16.6 17.4667 11 22 7C26.8 2.73332 33.0667 0.599983 40.8 0.599983C48.8 0.599983 55.2 2.73332 60 7C64.8 11 67.2 16.6 67.2 23.8C67.2 30.7333 64.9333 36.3333 60.4 40.6C55.8667 44.8667 49.4667 47 41.2 47C33.2 47 26.8 45 22 41C17.4667 36.7333 15.2 31 15.2 23.8ZM130.906 109H195.706V280.2L223.706 288.2V303H128.906V288.2L158.106 279.4V128.2L130.906 123.4V109ZM144.106 23.8C144.106 16.6 146.373 11 150.906 7C155.706 2.73332 161.973 0.599983 169.706 0.599983C177.706 0.599983 184.106 2.73332 188.906 7C193.706 11 196.106 16.6 196.106 23.8C196.106 30.7333 193.84 36.3333 189.306 40.6C184.773 44.8667 178.373 47 170.106 47C162.106 47 155.706 45 150.906 41C146.373 36.7333 144.106 31 144.106 23.8Z" fill="#F5F0EA"/>
</svg>
